<svg width="500" height="500" viewBox="0 0 500 500" fill="none" xmlns="http://www.w3.org/2000/svg" >
<style>.color{stroke: teal}</style>
<path d="M250 412.942C339.852 412.942 412.691 340.103 412.691 250.251C412.691 160.399 339.852 87.5596 250 87.5596C160.148 87.5596 87.3086 160.399 87.3086 250.251C87.3086 340.103 160.148 412.942 250 412.942Z" stroke="#907700" stroke-width="14.6177"/>
<g filter="url(#filter0_f)">
<path d="M250 412.942C339.852 412.942 412.691 340.103 412.691 250.251C412.691 160.399 339.852 87.5596 250 87.5596C160.148 87.5596 87.3086 160.399 87.3086 250.251C87.3086 340.103 160.148 412.942 250 412.942Z" stroke="" class="color" stroke-width="16"/>
</g>
<path fill-rule="evenodd" clip-rule="evenodd" d="M246.585 186.568C244.829 186.527 243.106 187.054 241.675 188.072C240.243 189.09 239.179 190.543 238.642 192.216C238.105 193.888 238.123 195.689 238.693 197.35C239.264 199.011 240.357 200.444 241.808 201.433L246.763 204.891C253.023 204.414 257.956 199.25 257.963 192.868V192.854L251.142 188.091C249.811 187.137 248.223 186.606 246.585 186.568L246.585 186.568ZM259.569 193.98C259.071 200.074 254.671 205.052 248.836 206.347L309.351 248.676C310.909 243.249 314.111 238.572 318.438 235.17L259.569 193.98V193.98ZM321.594 237.38C317.088 240.579 313.815 245.352 312.563 250.927L325.575 260.026C327.345 261.234 329.52 261.696 331.628 261.311C333.736 260.925 335.607 259.725 336.835 257.969C338.063 256.213 338.55 254.044 338.189 251.931C337.828 249.819 336.649 247.934 334.908 246.686L321.594 237.38V237.38Z" fill="#017067"/>
<path fill-rule="evenodd" clip-rule="evenodd" d="M332.424 245.711C329.252 245.789 326.234 247.098 324.01 249.362L312.495 260.754C314.341 269.385 321.055 276.157 329.638 278.131L341.181 266.726C342.957 265.021 344.175 262.819 344.677 260.409C345.179 257.999 344.941 255.494 343.995 253.222C343.048 250.95 341.436 249.017 339.371 247.677C337.307 246.337 334.885 245.652 332.424 245.712V245.711ZM309.503 263.705L233.136 339.179H267.876L326.634 281.094C318.431 278.436 312.045 271.957 309.504 263.704L309.503 263.705ZM230.951 341.625C229.212 344.131 228.474 347.196 228.881 350.219C229.288 353.241 230.812 356.002 233.152 357.959C235.491 359.915 238.479 360.925 241.526 360.79C244.573 360.655 247.459 359.386 249.617 357.23L265.401 341.625H230.951Z" fill="#017067"/>
<path d="M291.07 340.905H197.377C190.532 340.905 184.982 346.454 184.982 353.299C184.982 360.144 190.532 365.693 197.377 365.693H291.07C297.915 365.693 303.464 360.144 303.464 353.299C303.464 346.454 297.915 340.905 291.07 340.905Z" fill="#017067"/>
<path d="M334.757 231.459C328.263 231.46 322.036 234.04 317.444 238.631C312.852 243.223 310.272 249.451 310.271 255.945C310.27 259.162 310.902 262.347 312.132 265.32C313.362 268.292 315.165 270.993 317.439 273.268C319.713 275.543 322.413 277.348 325.384 278.579C328.356 279.811 331.541 280.445 334.757 280.445C337.975 280.446 341.162 279.814 344.135 278.583C347.108 277.352 349.809 275.548 352.085 273.272C354.36 270.997 356.164 268.296 357.395 265.323C358.626 262.35 359.258 259.163 359.257 255.945C359.257 252.729 358.623 249.544 357.391 246.572C356.16 243.6 354.355 240.901 352.08 238.627C349.805 236.353 347.104 234.549 344.132 233.32C341.159 232.09 337.974 231.458 334.757 231.459ZM334.757 239.571C343.793 239.571 351.145 246.923 351.145 255.959C351.145 264.994 343.793 272.347 334.757 272.347C325.722 272.347 318.383 264.994 318.383 255.959C318.383 246.923 325.722 239.571 334.757 239.571ZM334.757 242.014C327.041 242.014 320.812 248.243 320.812 255.959C320.812 263.675 327.041 269.904 334.757 269.904C342.474 269.904 348.703 263.675 348.703 255.959C348.703 248.243 342.474 242.014 334.757 242.014Z" fill="#017067"/>
<path d="M334.757 271.039C343.133 271.039 349.923 264.248 349.923 255.872C349.923 247.496 343.133 240.707 334.757 240.707C326.382 240.707 319.592 247.496 319.592 255.872C319.592 264.248 326.382 271.039 334.757 271.039Z" fill="#017067" stroke="#D7D0D0" stroke-width="2.44174" stroke-linecap="round" stroke-linejoin="round"/>
<path fill-rule="evenodd" clip-rule="evenodd" d="M210.829 146.449L181.032 156.084C180.497 156.235 179.997 156.492 179.564 156.841C179.131 157.189 178.772 157.621 178.51 158.111C178.247 158.601 178.086 159.139 178.037 159.693C177.987 160.247 178.049 160.805 178.22 161.334C178.391 161.863 178.667 162.352 179.031 162.772C179.395 163.192 179.84 163.535 180.34 163.779C180.839 164.023 181.383 164.164 181.938 164.193C182.493 164.222 183.048 164.139 183.571 163.948L208.564 155.864L235.947 183.246C237.974 181.159 240.644 179.749 243.647 179.266L210.829 146.449L210.829 146.449ZM245.197 180.817C242.036 180.986 239.213 182.325 237.155 184.454L237.429 184.729L236.564 189.272L236.372 189.999L234.492 196.999C235.646 200.181 238.056 202.753 241.162 204.054L244.36 192.126L244.635 191.111L246.364 181.984L245.198 180.817L245.197 180.817ZM174.706 187.515C173.902 187.529 173.121 187.776 172.456 188.227C171.791 188.677 171.272 189.312 170.962 190.053C170.652 190.794 170.564 191.609 170.71 192.399C170.855 193.189 171.228 193.92 171.782 194.501L192.261 217.656L239.38 205.028C236.566 203.523 234.31 201.121 233.08 198.152L195.06 208.336L177.973 189.025C177.577 188.543 177.078 188.157 176.512 187.896C175.946 187.634 175.329 187.504 174.706 187.515L174.706 187.515Z" fill="#017067"/>
<path d="M245.847 205.003C252.682 205.003 258.223 199.462 258.223 192.626C258.223 185.791 252.682 180.25 245.847 180.25C239.011 180.25 233.47 185.791 233.47 192.626C233.47 199.462 239.011 205.003 245.847 205.003Z" fill="#017067"/>
<defs>
<filter id="filter0_f" x="64.9998" y="65.2507" width="370" height="370" filterUnits="userSpaceOnUse" color-interpolation-filters="sRGB">
<feFlood flood-opacity="0" result="BackgroundImageFix"/>
<feBlend mode="normal" in="SourceGraphic" in2="BackgroundImageFix" result="shape"/>
<feGaussianBlur stdDeviation="7.5" result="effect1_foregroundBlur"/>
</filter>
</defs>
</svg>
