<svg width="50" height="50" viewBox="0 0 50 50" fill="none" xmlns="http://www.w3.org/2000/svg">
<path opacity="0.3" d="M8.16327 0H41.8367C44.0018 0 46.0781 0.860112 47.609 2.39102C49.1399 3.92193 50 5.99823 50 8.16327V41.8367C50 44.0018 49.1399 46.0781 47.609 47.609C46.0781 49.1399 44.0018 50 41.8367 50H8.16327C5.99823 50 3.92187 49.1399 2.39096 47.609C0.86005 46.0781 0 44.0018 0 41.8367V8.16327C0 5.99823 0.86005 3.92193 2.39096 2.39102C3.92187 0.860112 5.99823 0 8.16327 0Z" fill="url(#paint0_linear)"/>
<path d="M24.5656 6C13.7145 6 5 14.6657 5 25.1979C5 35.7301 13.7141 44.3803 24.5656 44.3803C35.4171 44.3803 44.1313 35.7298 44.1313 25.1979C44.1313 14.6659 35.4171 6 24.5656 6ZM24.5656 8.79624C33.6581 8.79624 41.0967 16.0689 41.0967 25.1981C41.0967 32.6203 36.1747 38.8058 29.4454 40.863V35.6765C29.4454 34.0607 28.8395 32.6166 27.8746 31.6475H28.7591C32.6522 31.6475 35.7893 28.5549 35.7893 24.7171V22.883C35.7893 20.8993 34.94 19.1223 33.5934 17.8617V13.7426L29.6131 16.0126C29.332 15.9791 29.0498 15.9526 28.7591 15.9526H21.241C20.6554 15.9526 20.0912 16.0312 19.5482 16.163L15.2935 13.7427V19.1997C14.615 20.266 14.2107 21.5262 14.2107 22.8829V24.717C14.2107 28.5548 17.3479 31.6475 21.241 31.6475H22.034C21.2289 32.4595 20.6833 33.6096 20.5241 34.9097C17.1858 36.1688 16.6233 32.3155 12.3655 31.7376C17.4539 35.8147 14.911 36.915 20.4632 37.1947V41.0884C13.3397 39.287 8.03414 32.9057 8.03414 25.198C8.03414 16.0693 15.4726 8.79618 24.5652 8.79618L24.5656 8.79624ZM25.1451 34.4285C25.4155 34.4285 25.6331 36.7886 25.6331 39.7203V40.7877C25.6331 41.0605 25.6218 41.3042 25.6179 41.5544C25.3024 41.5743 24.9923 41.5973 24.6724 41.5995C24.6626 41.335 24.6571 41.0767 24.6571 40.7878V39.7204C24.6571 36.7887 24.8748 34.4287 25.1451 34.4287V34.4285ZM22.6136 34.8194C22.884 34.8194 23.1016 37.1795 23.1016 40.1112V41.1636C23.1016 41.2919 23.1036 41.4059 23.1016 41.5244C22.7738 41.4961 22.4479 41.4662 22.1257 41.4192C22.1247 41.3341 22.1257 41.2545 22.1257 41.1636V40.1113C22.1257 37.1796 22.3433 34.8195 22.6136 34.8195V34.8194ZM27.4936 34.8194C27.764 34.8194 27.9816 37.1795 27.9816 40.1112V41.1636C27.9816 41.1904 27.9818 41.2126 27.9816 41.2387C27.6584 41.3061 27.3353 41.3556 27.0056 41.4041C27.0047 41.3236 27.0056 41.2491 27.0056 41.1635V40.1112C27.0056 37.1795 27.2233 34.8194 27.4936 34.8194V34.8194Z" fill="#2E3436" stroke="#888A85"/>
<g opacity="0.5" filter="url(#filter0_f)">
<path d="M23.5656 6C12.7145 6 4 14.6657 4 25.1979C4 35.7301 12.7141 44.3803 23.5656 44.3803C34.4171 44.3803 43.1313 35.7298 43.1313 25.1979C43.1313 14.6659 34.4171 6 23.5656 6ZM23.5656 8.79624C32.6581 8.79624 40.0967 16.0689 40.0967 25.1981C40.0967 32.6203 35.1747 38.8058 28.4454 40.863V35.6765C28.4454 34.0607 27.8395 32.6166 26.8746 31.6475H27.7591C31.6522 31.6475 34.7893 28.5549 34.7893 24.7171V22.883C34.7893 20.8993 33.94 19.1223 32.5934 17.8617V13.7426L28.6131 16.0126C28.332 15.9791 28.0498 15.9526 27.7591 15.9526H20.241C19.6554 15.9526 19.0912 16.0312 18.5482 16.163L14.2935 13.7427V19.1997C13.615 20.266 13.2107 21.5262 13.2107 22.8829V24.717C13.2107 28.5548 16.3479 31.6475 20.241 31.6475H21.034C20.2289 32.4595 19.6833 33.6096 19.5241 34.9097C16.1858 36.1688 15.6233 32.3155 11.3655 31.7376C16.4539 35.8147 13.911 36.915 19.4632 37.1947V41.0884C12.3397 39.287 7.03414 32.9057 7.03414 25.198C7.03414 16.0692 14.4726 8.79618 23.5652 8.79618L23.5656 8.79624ZM24.1451 34.4285C24.4155 34.4285 24.6331 36.7886 24.6331 39.7203V40.7877C24.6331 41.0605 24.6218 41.3042 24.6179 41.5544C24.3024 41.5743 23.9923 41.5973 23.6724 41.5995C23.6626 41.335 23.6571 41.0767 23.6571 40.7878V39.7204C23.6571 36.7887 23.8748 34.4286 24.1451 34.4286V34.4285ZM21.6136 34.8194C21.884 34.8194 22.1016 37.1795 22.1016 40.1112V41.1636C22.1016 41.2919 22.1036 41.4059 22.1016 41.5244C21.7738 41.4961 21.4479 41.4662 21.1257 41.4192C21.1247 41.3341 21.1257 41.2545 21.1257 41.1636V40.1113C21.1257 37.1796 21.3433 34.8195 21.6136 34.8195V34.8194ZM26.4936 34.8194C26.764 34.8194 26.9816 37.1795 26.9816 40.1112V41.1636C26.9816 41.1904 26.9818 41.2126 26.9816 41.2387C26.6584 41.3061 26.3353 41.3556 26.0056 41.4041C26.0047 41.3236 26.0056 41.2491 26.0056 41.1635V40.1111C26.0056 37.1795 26.2233 34.8194 26.4936 34.8194V34.8194Z" fill="white"/>
</g>
<path d="M24.5656 6C13.7145 6 5 14.6657 5 25.1979C5 35.7301 13.7141 44.3803 24.5656 44.3803C35.4171 44.3803 44.1313 35.7298 44.1313 25.1979C44.1313 14.6659 35.4171 6 24.5656 6ZM24.5656 8.79624C33.6581 8.79624 41.0967 16.0689 41.0967 25.1981C41.0967 32.6203 36.1747 38.8058 29.4454 40.863V35.6765C29.4454 34.0607 28.8395 32.6166 27.8746 31.6475H28.7591C32.6522 31.6475 35.7893 28.5549 35.7893 24.7171V22.883C35.7893 20.8993 34.94 19.1223 33.5934 17.8617V13.7426L29.6131 16.0126C29.332 15.9791 29.0498 15.9526 28.7591 15.9526H21.241C20.6554 15.9526 20.0912 16.0312 19.5482 16.163L15.2935 13.7427V19.1997C14.615 20.266 14.2107 21.5262 14.2107 22.8829V24.717C14.2107 28.5548 17.3479 31.6475 21.241 31.6475H22.034C21.2289 32.4595 20.6833 33.6096 20.5241 34.9097C17.1858 36.1688 16.6233 32.3155 12.3655 31.7376C17.4539 35.8147 14.911 36.915 20.4632 37.1947V41.0884C13.3397 39.287 8.03414 32.9057 8.03414 25.198C8.03414 16.0693 15.4726 8.79618 24.5652 8.79618L24.5656 8.79624ZM25.1451 34.4285C25.4155 34.4285 25.6331 36.7886 25.6331 39.7203V40.7877C25.6331 41.0605 25.6218 41.3042 25.6179 41.5544C25.3024 41.5743 24.9923 41.5973 24.6724 41.5995C24.6626 41.335 24.6571 41.0767 24.6571 40.7878V39.7204C24.6571 36.7887 24.8748 34.4287 25.1451 34.4287V34.4285ZM22.6136 34.8194C22.884 34.8194 23.1016 37.1795 23.1016 40.1112V41.1636C23.1016 41.2919 23.1036 41.4059 23.1016 41.5244C22.7738 41.4961 22.4479 41.4662 22.1257 41.4192C22.1247 41.3341 22.1257 41.2545 22.1257 41.1636V40.1113C22.1257 37.1796 22.3433 34.8195 22.6136 34.8195V34.8194ZM27.4936 34.8194C27.764 34.8194 27.9816 37.1795 27.9816 40.1112V41.1636C27.9816 41.1904 27.9818 41.2126 27.9816 41.2387C27.6584 41.3061 27.3353 41.3556 27.0056 41.4041C27.0047 41.3236 27.0056 41.2491 27.0056 41.1635V40.1112C27.0056 37.1795 27.2233 34.8194 27.4936 34.8194V34.8194Z" fill="#2E3436"/>
<path opacity="0.62007" d="M24.5674 6C13.7159 6 5.00177 14.6581 5.00177 25.1902C5.00177 25.3496 4.99779 25.5114 5.00177 25.6699C5.26799 15.3612 13.8853 6.95951 24.5674 6.95951C35.2496 6.95951 43.8668 15.3612 44.1331 25.6699C44.1371 25.5114 44.1331 25.3496 44.1331 25.1902C44.1331 14.6581 35.4189 6 24.5674 6ZM15.3043 13.736V14.6955L19.5537 17.1243C20.0968 16.9925 20.6496 16.9144 21.2351 16.9144H28.7557C29.0463 16.9144 29.3305 16.9409 29.6117 16.9744L33.5859 14.6955V13.736L29.6117 16.0149C29.3305 15.9814 29.0463 15.9549 28.7557 15.9549H21.2351C20.6496 15.9549 20.0968 16.033 19.5537 16.1648L15.3043 13.736ZM33.5859 17.8739V18.8334C34.9326 20.094 35.7871 21.8572 35.7871 23.8409V22.8813C35.7871 20.8977 34.9326 19.1345 33.5859 17.8739ZM15.3043 19.1932C14.6259 20.2595 14.2037 21.5246 14.2037 22.8813V23.8409C14.2037 22.4841 14.6259 21.219 15.3043 20.1527V19.1932ZM8.0589 25.7299C8.05528 25.8717 8.02833 26.0069 8.02833 26.1497C8.02833 33.8573 13.3474 40.2402 20.4709 42.0415V41.082C13.5144 39.3229 8.30001 33.1943 8.0589 25.7299ZM41.0759 25.7299C40.8428 32.9098 36.0231 38.8652 29.4588 40.8721V41.8316C36.1877 39.7744 41.1065 33.572 41.1065 26.1497C41.1065 26.0069 41.0795 25.8717 41.0759 25.7299ZM12.3695 31.7268C12.9845 32.2196 13.4782 32.6965 13.898 33.1061C16.8189 34.239 17.6447 36.9536 20.532 35.8647V34.9052C17.1936 36.1643 16.6273 32.3046 12.3695 31.7268ZM29.4588 36.6443V35.6848V36.6443ZM25.6374 40.7822C25.6374 41.055 25.6107 41.3115 25.6068 41.5618C25.2913 41.5816 24.979 41.5895 24.6591 41.5918V41.7417C24.6591 42.0305 24.6493 42.2867 24.6591 42.5513C24.979 42.5491 25.2913 42.5411 25.6068 42.5213C25.6107 42.271 25.6374 42.0145 25.6374 41.7417V40.7822ZM27.9914 41.2319C27.6682 41.2993 27.3428 41.3634 27.0131 41.4118V42.1315C27.0131 42.217 27.0122 42.2909 27.0131 42.3714C27.3428 42.3229 27.6682 42.2588 27.9914 42.1914C27.9915 42.1654 27.9914 42.1583 27.9914 42.1315V41.2319ZM22.1217 41.4118V42.1315C22.1217 42.2224 22.1208 42.2862 22.1217 42.3714C22.4439 42.4184 22.7722 42.463 23.1 42.4913C23.1019 42.3728 23.1 42.2598 23.1 42.1315V41.5318C22.7722 41.5035 22.4439 41.4589 22.1217 41.4118Z" fill="black"/>
<defs>
<filter id="filter0_f" x="3.6" y="5.6" width="39.9313" height="39.1803" filterUnits="userSpaceOnUse" color-interpolation-filters="sRGB">
<feFlood flood-opacity="0" result="BackgroundImageFix"/>
<feBlend mode="normal" in="SourceGraphic" in2="BackgroundImageFix" result="shape"/>
<feGaussianBlur stdDeviation="0.2" result="effect1_foregroundBlur"/>
</filter>
<linearGradient id="paint0_linear" x1="-575.439" y1="48.5204" x2="-575.439" y2="15.7959" gradientUnits="userSpaceOnUse">
<stop/>
<stop offset="1" stop-opacity="0"/>
</linearGradient>
</defs>
</svg>
