<svg width="170" height="185" viewBox="0 0 170 185" fill="none" xmlns="http://www.w3.org/2000/svg">
<path d="M65.5 100.5C66.5385 86.0983 66.0219 77.4267 61.5 60C67.833 57.2194 73.1392 56.4678 84.5 56C101.47 55.9176 110.5 60 110.5 60C110.5 60 102.277 84.4275 105 100.5H65.5Z" fill="url(#paint0_linear)"/>
<g filter="url(#filter0_i)">
<path d="M84.9869 7.5C38.0427 7.5 6 50 5 110C5 112.002 11.078 112.308 14.9725 110C23.8781 71.7132 39.0194 59.9296 84.9739 57C120.783 59.3875 137.664 67.8051 155.5 110C160.754 111.236 162.494 110.963 165 110C165 48.5 131.931 7.5 84.9869 7.5Z" fill="#D3D3D3"/>
</g>
<g filter="url(#filter1_f)">
<path d="M85 55.5C88.3445 43.9376 106.332 31.7304 120 16.5C123.626 30.3637 124.597 38.1361 120 52L107 58.5L101 98.5C101 98.5 83 98.5 83.5 96.5C84 94.5 81.6555 67.0624 85 55.5Z" fill="#8F8F8E"/>
</g>
<g filter="url(#filter2_f)">
<path d="M12.1046 81C10.7553 77.0784 22.5194 52.3235 44 31L36.8398 60.4118L12.1046 81Z" fill="#F0F0F0"/>
</g>
<path d="M135 130C135 143.982 112.614 180 85 180C57.3858 180 35 143.982 35 130C60.8333 154.684 85 154.684 85 154.684C85 154.684 109.583 154.684 135 130Z" fill="url(#paint1_linear)"/>
<ellipse cx="154" cy="150" rx="10" ry="30" fill="url(#paint2_radial)"/>
<ellipse cx="16" cy="150" rx="10" ry="30" fill="url(#paint3_radial)"/>
<defs>
<filter id="filter0_i" x="5" y="7.5" width="160" height="107.118" filterUnits="userSpaceOnUse" color-interpolation-filters="sRGB">
<feFlood flood-opacity="0" result="BackgroundImageFix"/>
<feBlend mode="normal" in="SourceGraphic" in2="BackgroundImageFix" result="shape"/>
<feColorMatrix in="SourceAlpha" type="matrix" values="0 0 0 0 0 0 0 0 0 0 0 0 0 0 0 0 0 0 127 0" result="hardAlpha"/>
<feOffset dy="3"/>
<feGaussianBlur stdDeviation="3.5"/>
<feComposite in2="hardAlpha" operator="arithmetic" k2="-1" k3="1"/>
<feColorMatrix type="matrix" values="0 0 0 0 0.916667 0 0 0 0 0.916667 0 0 0 0 0.916667 0 0 0 1 0"/>
<feBlend mode="normal" in2="shape" result="effect1_innerShadow"/>
</filter>
<filter id="filter1_f" x="68.1625" y="1.5" width="69.9319" height="112" filterUnits="userSpaceOnUse" color-interpolation-filters="sRGB">
<feFlood flood-opacity="0" result="BackgroundImageFix"/>
<feBlend mode="normal" in="SourceGraphic" in2="BackgroundImageFix" result="shape"/>
<feGaussianBlur stdDeviation="7.5" result="effect1_foregroundBlur"/>
</filter>
<filter id="filter2_f" x="8" y="27" width="40" height="58" filterUnits="userSpaceOnUse" color-interpolation-filters="sRGB">
<feFlood flood-opacity="0" result="BackgroundImageFix"/>
<feBlend mode="normal" in="SourceGraphic" in2="BackgroundImageFix" result="shape"/>
<feGaussianBlur stdDeviation="2" result="effect1_foregroundBlur"/>
</filter>
<linearGradient id="paint0_linear" x1="86" y1="55.9988" x2="86" y2="100.5" gradientUnits="userSpaceOnUse">
<stop stop-color="#A7A7A6"/>
<stop offset="1" stop-color="#FEFEFE"/>
</linearGradient>
<linearGradient id="paint1_linear" x1="85" y1="130" x2="85" y2="180" gradientUnits="userSpaceOnUse">
<stop offset="0.553191" stop-color="white"/>
<stop offset="1" stop-color="#A4A4A4"/>
</linearGradient>
<radialGradient id="paint2_radial" cx="0" cy="0" r="1" gradientUnits="userSpaceOnUse" gradientTransform="translate(154 150) rotate(90) scale(30 10)">
<stop offset="0.411458" stop-color="#8A8A8A"/>
<stop offset="1" stop-color="white"/>
</radialGradient>
<radialGradient id="paint3_radial" cx="0" cy="0" r="1" gradientUnits="userSpaceOnUse" gradientTransform="translate(16 150) rotate(90) scale(30 10)">
<stop offset="0.484375" stop-color="#777777"/>
<stop offset="1" stop-color="white"/>
</radialGradient>
</defs>
</svg>
