<svg width="109" height="29" viewBox="0 0 109 29" fill="none" xmlns="http://www.w3.org/2000/svg">
<path d="M3.00414 0.339998C4.56414 0.579999 6.85414 0.699999 9.87414 0.699999C11.0541 0.699999 11.6841 1.33 11.7641 2.59C11.8841 4.91 11.9441 7 11.9441 8.86C11.9441 10.72 11.8641 12.56 11.7041 14.38C11.5241 16.6 10.7641 18.48 9.42414 20.02C8.10414 21.56 6.42414 22.33 4.38414 22.33C3.26414 22.33 2.29414 22.03 1.47414 21.43C0.654141 20.81 0.244141 20.06 0.244141 19.18C0.244141 18.28 0.484141 17.55 0.964141 16.99C1.46414 16.41 2.08414 16.12 2.82414 16.12C3.18414 16.12 3.51414 16.19 3.81414 16.33C3.67414 16.69 3.60414 17.1 3.60414 17.56C3.60414 18 3.75414 18.42 4.05414 18.82C4.37414 19.2 4.79414 19.39 5.31414 19.39C5.85414 19.39 6.30414 19.2 6.66414 18.82C7.04414 18.42 7.32414 17.86 7.50414 17.14C7.94414 15.52 8.16414 13.46 8.16414 10.96C8.16414 8.44 8.03414 6.01 7.77414 3.67C7.45414 3.67 6.93414 3.75 6.21414 3.91C5.51414 4.05 5.02414 4.12 4.74414 4.12C3.34414 4.12 2.64414 3.41 2.64414 1.99C2.64414 1.49 2.76414 0.939999 3.00414 0.339998ZM20.3235 0.939999C21.1635 0.659999 21.9235 0.519999 22.6035 0.519999C23.6435 0.519999 24.4535 0.889999 25.0335 1.63C25.6135 2.35 26.0635 3.38 26.3835 4.72C26.4835 5.12 26.6835 6 26.9835 7.36C27.3035 8.72 27.5635 9.82 27.7635 10.66C28.3835 13.28 28.9435 15.31 29.4435 16.75C29.9635 18.19 30.7835 19.34 31.9035 20.2C31.6635 20.8 31.2635 21.28 30.7035 21.64C30.1635 22 29.5735 22.18 28.9335 22.18C27.4735 22.18 26.4035 21.08 25.7235 18.88C25.4035 17.86 25.1135 16.86 24.8535 15.88C24.1535 16.12 23.2835 16.24 22.2435 16.24C21.2235 16.24 19.9635 16.13 18.4635 15.91C17.8435 18.33 17.5335 20.15 17.5335 21.37C17.5335 21.63 17.5435 21.82 17.5635 21.94C17.3035 21.98 16.8635 22 16.2435 22C15.6235 22 15.0735 21.81 14.5935 21.43C14.1335 21.03 13.9035 20.47 13.9035 19.75C13.9035 18.75 14.8635 15.82 16.7835 10.96C18.7035 6.1 19.8835 2.76 20.3235 0.939999ZM19.1535 13.39C19.9535 13.49 20.7635 13.54 21.5835 13.54C22.4235 13.54 23.3135 13.45 24.2535 13.27C24.0735 12.45 23.4635 9.31 22.4235 3.85C21.1835 7.07 20.0935 10.25 19.1535 13.39ZM46.2805 0.999999C46.9205 0.679999 47.5905 0.519999 48.2905 0.519999C49.0105 0.519999 49.5905 0.74 50.0305 1.18C50.4905 1.62 50.7205 2.15 50.7205 2.77C50.7205 3.39 50.6305 4.76 50.4505 6.88C50.2705 8.98 50.1805 10.65 50.1805 11.89C50.1805 15.87 50.3605 19.18 50.7205 21.82C50.0805 22.06 49.3605 22.18 48.5605 22.18C47.7805 22.18 47.1705 22.05 46.7305 21.79C45.4505 21.05 42.4605 16.37 37.7605 7.75C37.6805 8.53 37.6405 10.36 37.6405 13.24C37.6405 16.1 37.8605 18.9 38.3005 21.64C37.6805 21.88 37.0105 22 36.2905 22C35.5705 22 34.9805 21.77 34.5205 21.31C34.0805 20.85 33.8605 20.3 33.8605 19.66C33.8605 19.02 33.9505 17.68 34.1305 15.64C34.3305 13.6 34.4305 12.06 34.4305 11.02C34.4305 7.04 34.2405 3.74 33.8605 1.12C34.4205 0.839999 35.2405 0.699999 36.3205 0.699999C37.4005 0.699999 38.1605 1.13 38.6005 1.99C41.5605 8.01 44.3905 13.11 47.0905 17.29C47.0305 13.45 47.0005 11.42 47.0005 11.2C47.0005 7.46 46.7605 4.06 46.2805 0.999999ZM69.591 3.28C71.131 5.22 71.901 7.69 71.901 10.69C71.901 13.69 71.131 16.19 69.591 18.19C68.071 20.19 66.161 21.45 63.861 21.97C64.061 22.09 64.491 22.34 65.151 22.72C65.831 23.1 66.261 23.34 66.441 23.44C66.641 23.56 67.011 23.75 67.551 24.01C68.091 24.29 68.501 24.47 68.781 24.55C69.061 24.63 69.441 24.74 69.921 24.88C70.641 25.12 71.561 25.24 72.681 25.24C72.681 26.16 72.461 26.92 72.021 27.52C71.581 28.12 70.951 28.42 70.131 28.42C69.311 28.42 68.511 28.24 67.731 27.88C66.951 27.52 66.311 27.12 65.811 26.68C65.311 26.26 64.631 25.65 63.771 24.85C62.931 24.05 62.251 23.45 61.731 23.05C61.231 22.65 60.261 22.2 58.821 21.7C57.161 21.16 55.761 20.07 54.621 18.43C53.501 16.79 52.941 14.63 52.941 11.95C52.941 8.73 53.881 5.99 55.761 3.73C57.641 1.47 60.031 0.339998 62.931 0.339998C65.851 0.339998 68.071 1.32 69.591 3.28ZM62.901 19.33C64.041 19.33 65.011 18.88 65.811 17.98C67.231 16.36 67.941 14.03 67.941 10.99C67.941 8.61 67.451 6.7 66.471 5.26C65.511 3.82 64.001 3.1 61.941 3.1C60.721 3.1 59.621 3.49 58.641 4.27C58.101 5.13 57.671 6.25 57.351 7.63C57.051 9.01 56.901 10.35 56.901 11.65C56.901 14.01 57.381 15.88 58.341 17.26C59.301 18.64 60.821 19.33 62.901 19.33ZM79.2625 3.13C79.2625 4.63 79.1125 6.61 78.8125 9.07C78.5325 11.53 78.3925 13.43 78.3925 14.77C78.3925 16.11 78.7525 17.23 79.4725 18.13C80.1925 19.01 81.2625 19.45 82.6825 19.45C83.2625 19.45 83.9625 19.31 84.7825 19.03C85.6025 18.75 86.2525 18.39 86.7325 17.95C86.9925 15.73 87.1225 12.88 87.1225 9.4C87.1225 5.9 86.8725 3.06 86.3725 0.879998C87.0125 0.639999 87.6925 0.519999 88.4125 0.519999C89.1325 0.519999 89.7525 0.749999 90.2725 1.21C90.8125 1.67 91.0825 2.27 91.0825 3.01C91.0825 3.75 90.9925 5.02 90.8125 6.82C90.6525 8.62 90.5725 10.64 90.5725 12.88C90.5725 15.1 90.6725 17.06 90.8725 18.76C87.9525 21.16 84.9925 22.36 81.9925 22.36C79.7125 22.36 77.9325 21.78 76.6525 20.62C75.3925 19.44 74.7625 17.74 74.7625 15.52C74.7625 14.82 74.8225 13.56 74.9425 11.74C75.0825 9.9 75.1525 8.56 75.1525 7.72C75.1525 4.7 74.9525 2.48 74.5525 1.06C75.1925 0.819999 75.8725 0.699999 76.5925 0.699999C77.3125 0.699999 77.9325 0.929999 78.4525 1.39C78.9925 1.85 79.2625 2.43 79.2625 3.13ZM108.064 17.86C108.304 18.4 108.424 19.01 108.424 19.69C108.424 20.37 108.184 20.96 107.704 21.46C107.244 21.94 106.674 22.18 105.994 22.18C103.874 22.18 100.554 22.06 96.0344 21.82C95.6744 21.8 95.3544 21.69 95.0744 21.49C94.7944 21.27 94.6544 21 94.6544 20.68C94.6544 19.62 94.7344 17.83 94.8944 15.31C95.0744 12.79 95.1644 10.44 95.1644 8.26C95.1644 6.06 94.9544 3.54 94.5344 0.699999C96.0144 0.819999 98.0044 0.879998 100.504 0.879998C103.004 0.879998 105.394 0.699998 107.674 0.339998C107.914 0.779998 108.034 1.31 108.034 1.93C108.034 2.53 107.794 3.07 107.314 3.55C106.854 4.01 106.274 4.24 105.574 4.24C104.894 4.24 103.794 4.14 102.274 3.94C100.774 3.74 99.6644 3.64 98.9444 3.64C98.7844 5.66 98.6944 7.56 98.6744 9.34C99.9344 9.46 101.284 9.52 102.724 9.52C104.184 9.52 105.434 9.31 106.474 8.89C106.714 9.33 106.834 9.86 106.834 10.48C106.834 11.08 106.594 11.63 106.114 12.13C105.654 12.61 105.094 12.85 104.434 12.85C103.794 12.85 102.834 12.73 101.554 12.49C100.274 12.23 99.3044 12.1 98.6444 12.1C98.6444 15.26 98.7144 17.58 98.8544 19.06C99.8144 19.14 100.564 19.18 101.104 19.18C103.744 19.18 106.064 18.74 108.064 17.86Z" fill="url(#paint0_linear)"/>
<defs>
<linearGradient id="paint0_linear" x1="77.4301" y1="-20.8472" x2="22.4319" y2="-11.2333" gradientUnits="userSpaceOnUse">
<stop stop-color="#076D83"/>
<stop offset="0.226615" stop-color="#168097"/>
<stop offset="1" stop-color="#039CA6"/>
</linearGradient>
</defs>
</svg>
