<svg width="118" height="34" viewBox="0 0 118 34" fill="none" xmlns="http://www.w3.org/2000/svg">
<path d="M0.284203 27.664L2.9482 26.368L3.7762 26.872C3.7762 28.336 4.1602 29.296 4.9282 29.752C5.1442 29.896 5.3602 29.968 5.5762 29.968C6.1522 29.968 6.7162 29.536 7.2682 28.672C8.7082 26.416 9.4282 22.108 9.4282 15.748C9.4282 12.172 9.2842 8.752 8.9962 5.488C8.7082 5.536 8.1802 5.56 7.4122 5.56C6.6682 5.56 5.8522 5.452 4.9642 5.236L4.5682 4.3L5.5042 1.204C6.5602 2.02 8.0122 2.428 9.8602 2.428C11.7322 2.428 13.6642 2.104 15.6562 1.456C15.7522 1.456 15.8002 1.66 15.8002 2.068C15.8002 2.476 15.6202 2.836 15.2602 3.148C14.3002 3.724 13.5322 4.132 12.9562 4.372C12.5002 15.148 11.7922 22.252 10.8322 25.684C10.0402 28.54 8.6962 30.604 6.8002 31.876C5.8642 32.5 5.0362 32.812 4.3162 32.812C3.6202 32.812 2.9962 32.644 2.4442 32.308C1.1722 31.516 0.452203 29.968 0.284203 27.664ZM30.4328 1.312C30.3128 2.584 30.2528 3.928 30.2528 5.344C30.2528 11.176 31.3328 18.1 33.4928 26.116C33.4208 26.164 33.3248 26.2 33.2048 26.224C32.5808 26.224 32.1128 26.044 31.8008 25.684C30.9848 23.956 30.0968 21.412 29.1368 18.052C27.5048 18.316 25.9808 18.448 24.5648 18.448C23.1728 18.448 22.2008 18.424 21.6488 18.376C20.5208 20.728 19.2608 23.164 17.8688 25.684C17.4368 26.044 16.9928 26.224 16.5368 26.224C16.0808 26.224 15.8528 26.188 15.8528 26.116C16.7648 24.316 17.9648 21.64 19.4528 18.088C19.1648 18.04 18.7088 17.944 18.0848 17.8C17.7248 17.416 17.5448 16.888 17.5448 16.216C17.5448 16.048 17.5808 15.964 17.6528 15.964C17.7248 15.964 17.8688 16 18.0848 16.072C18.5888 16.216 19.2608 16.336 20.1008 16.432C22.4048 10.792 24.0008 6.22 24.8888 2.716L28.8488 0.627998C29.5208 0.627998 30.0488 0.855998 30.4328 1.312ZM22.5128 16.54C24.7688 16.492 26.7728 16.216 28.5248 15.712C27.5408 11.992 26.9168 8.824 26.6528 6.208C25.2848 9.976 23.9048 13.42 22.5128 16.54ZM54.8751 2.104C54.1071 4.024 53.5311 6.46 53.1471 9.412C52.7631 12.34 52.5711 15.136 52.5711 17.8C52.5711 20.464 52.6911 23.164 52.9311 25.9C52.9311 25.972 52.8231 26.008 52.6071 26.008C51.9111 26.008 51.4551 25.84 51.2391 25.504C47.2071 19.576 43.9191 13.792 41.3751 8.152C41.3751 14.296 40.6911 20.02 39.3231 25.324C39.1311 25.516 38.8431 25.672 38.4591 25.792C38.0751 25.936 37.7631 26.008 37.5231 26.008C37.2831 26.008 37.1631 25.96 37.1631 25.864L37.3071 25.432C38.1711 22.288 38.6031 18.58 38.6031 14.308C38.6031 12.364 38.4831 10.384 38.2431 8.368C38.0271 6.328 37.8111 4.768 37.5951 3.688L37.2351 2.104L41.1231 0.627998L42.0591 1.204C43.0911 4.78 44.3631 8.248 45.8751 11.608C47.3871 14.968 48.9231 17.884 50.4831 20.356C50.1711 18.052 50.0151 15.328 50.0151 12.184C50.0151 9.04 50.4231 5.38 51.2391 1.204L52.1391 0.627998L54.8751 2.104ZM58.2192 32.416C57.8112 32.416 57.4152 32.224 57.0312 31.84C56.9592 31.84 56.9232 31.732 56.9232 31.516C56.9952 30.916 57.1992 30.508 57.5352 30.292C58.1352 30.076 59.0352 29.8 60.2352 29.464C61.6032 28.432 62.8512 27.28 63.9792 26.008C61.9152 25.552 60.2352 24.424 58.9392 22.624C57.6672 20.8 57.0312 18.436 57.0312 15.532C57.0312 12.172 58.0872 9.112 60.1992 6.352C61.3032 4.888 62.8752 3.652 64.9152 2.644C66.9552 1.612 69.3432 0.951998 72.0792 0.663998L72.6912 1.564L71.6472 3.652C72.8472 4.684 73.8312 6.16 74.5992 8.08C75.3912 10 75.7872 11.86 75.7872 13.66C75.7872 15.436 75.6192 16.996 75.2832 18.34C74.9472 19.66 74.4312 20.896 73.7352 22.048C73.0632 23.2 72.1272 24.148 70.9272 24.892C69.7272 25.636 68.3352 26.068 66.7512 26.188C66.0312 27.004 65.1672 27.856 64.1592 28.744C64.8792 28.672 65.8992 28.636 67.2192 28.636C68.5392 28.636 70.0272 28.864 71.6832 29.32L72.1872 30.22L70.6752 33.064C68.8992 31.96 66.1392 31.408 62.3952 31.408C61.4352 31.408 60.7392 31.42 60.3072 31.444C59.6592 31.828 59.1552 32.08 58.7952 32.2C58.4352 32.344 58.2432 32.416 58.2192 32.416ZM66.7152 23.236C68.8992 23.164 70.5672 22.348 71.7192 20.788C72.8952 19.228 73.4832 17.404 73.4832 15.316C73.4832 13.204 73.1352 11.104 72.4392 9.016C71.7432 6.928 70.7712 5.26 69.5232 4.012C66.4752 4.444 64.2072 5.584 62.7192 7.432C61.2312 9.256 60.4872 11.56 60.4872 14.344C60.4872 17.104 61.0872 19.276 62.2872 20.86C63.5112 22.444 64.9872 23.236 66.7152 23.236ZM84.7171 2.104C84.2851 3.472 83.8891 5.284 83.5291 7.54C83.1691 9.772 82.9891 11.932 82.9891 14.02C82.9891 20.116 84.5491 23.164 87.6691 23.164C89.0851 23.164 90.2371 22.432 91.1251 20.968C92.0131 19.504 92.6011 17.728 92.8891 15.64C92.6731 13.552 92.5651 11.356 92.5651 9.052C92.5651 6.748 92.7931 4.132 93.2491 1.204L94.1851 0.627998L97.2451 2.104C96.1411 4.936 95.5891 9.292 95.5891 15.172C95.5891 19.54 95.7691 23.188 96.1291 26.116C96.1291 26.188 96.0331 26.224 95.8411 26.224C95.2171 26.224 94.7491 26.044 94.4371 25.684C93.9331 23.188 93.5611 21.052 93.3211 19.276C92.1211 23.884 89.8411 26.188 86.4811 26.188C85.1851 26.188 84.0811 25.804 83.1691 25.036C82.2571 24.268 81.5611 23.2 81.0811 21.832C80.1931 19.336 79.7491 16.252 79.7491 12.58C79.7491 8.884 80.0731 5.092 80.7211 1.204L81.6571 0.627998L84.7171 2.104ZM114.033 11.788L112.953 14.272C111.561 14.536 110.229 14.668 108.957 14.668C107.685 14.668 106.581 14.632 105.645 14.56C105.621 14.896 105.609 15.376 105.609 16C105.609 18.352 105.945 20.296 106.617 21.832C107.313 23.344 108.345 24.1 109.713 24.1C111.105 24.1 112.221 23.596 113.061 22.588C113.901 21.556 114.645 19.9 115.293 17.62C115.341 17.428 115.425 17.332 115.545 17.332C115.881 17.332 116.253 17.5 116.661 17.836C115.557 23.404 113.049 26.188 109.137 26.188C104.985 26.188 102.837 22.204 102.693 14.236L101.973 14.092C101.757 14.02 101.541 13.78 101.325 13.372C101.133 12.94 101.025 12.604 101.001 12.364L101.181 12.148C101.829 12.244 102.345 12.304 102.729 12.328C102.849 8.632 103.065 5.872 103.377 4.048L102.513 3.832C102.297 3.688 102.117 3.46 101.973 3.148C101.853 2.812 101.793 2.572 101.793 2.428C101.793 2.284 101.817 2.212 101.865 2.212L104.421 2.428L107.049 0.627998L107.985 1.204L107.553 2.464C111.201 2.416 114.189 1.804 116.517 0.627998L117.129 1.564L115.941 4.66C114.261 4.876 112.665 4.984 111.153 4.984C109.641 4.984 108.261 4.9 107.013 4.732C106.437 7.18 106.029 9.748 105.789 12.436H106.617C109.209 12.436 111.573 12.016 113.709 11.176L114.033 11.788Z" fill="url(#paint0_linear)"/>
<defs>
<linearGradient id="paint0_linear" x1="115.154" y1="-29.658" x2="-9.72372" y2="-16.736" gradientUnits="userSpaceOnUse">
<stop stop-color="#5B5B5B"/>
<stop offset="0.369792" stop-color="#558F97"/>
<stop offset="1" stop-color="#2F748A"/>
</linearGradient>
</defs>
</svg>
