<svg width="180" height="190" viewBox="0 0 180 190" fill="none" xmlns="http://www.w3.org/2000/svg">
<path d="M70.5 100.5C71.5385 86.0983 71.0219 77.4267 66.5 60C72.833 57.2194 78.1392 56.4678 89.5 56C106.47 55.9176 115.5 60 115.5 60C115.5 60 107.277 84.4275 110 100.5H70.5Z" fill="url(#paint0_linear)"/>
<g filter="url(#filter0_i)">
<path d="M89.9869 7.5C43.0427 7.5 11 50 10 110C10 112.002 16.078 112.308 19.9725 110C28.8781 71.7132 44.0194 59.9296 89.9739 57C125.783 59.3875 142.664 67.8051 160.5 110C165.754 111.236 167.494 110.963 170 110C170 48.5 136.931 7.5 89.9869 7.5Z" fill="#DFA612"/>
</g>
<g filter="url(#filter1_f)">
<path d="M90 55.5C93.3445 43.9376 111.332 31.7304 125 16.5C128.626 30.3637 129.597 38.1361 125 52L112 58.5L106 98.5C106 98.5 88 98.5 88.5 96.5C89 94.5 86.6555 67.0624 90 55.5Z" fill="#795E19"/>
</g>
<g filter="url(#filter2_f)">
<path d="M17.1046 81C15.7553 77.0784 27.5194 52.3235 49 31L41.8398 60.4118L17.1046 81Z" fill="#D1BA7D"/>
</g>
<path d="M140 130C140 143.982 117.614 180 90 180C62.3858 180 40 143.982 40 130C65.8333 154.684 90 154.684 90 154.684C90 154.684 114.583 154.684 140 130Z" fill="url(#paint1_linear)"/>
<ellipse cx="159" cy="150" rx="10" ry="30" fill="#DFA612"/>
<ellipse cx="21" cy="150" rx="10" ry="30" fill="#DFA612"/>
<defs>
<filter id="filter0_i" x="10" y="7.5" width="160" height="107.118" filterUnits="userSpaceOnUse" color-interpolation-filters="sRGB">
<feFlood flood-opacity="0" result="BackgroundImageFix"/>
<feBlend mode="normal" in="SourceGraphic" in2="BackgroundImageFix" result="shape"/>
<feColorMatrix in="SourceAlpha" type="matrix" values="0 0 0 0 0 0 0 0 0 0 0 0 0 0 0 0 0 0 127 0" result="hardAlpha"/>
<feOffset dy="3"/>
<feGaussianBlur stdDeviation="3.5"/>
<feComposite in2="hardAlpha" operator="arithmetic" k2="-1" k3="1"/>
<feColorMatrix type="matrix" values="0 0 0 0 0.508333 0 0 0 0 0.366 0 0 0 0 0 0 0 0 1 0"/>
<feBlend mode="normal" in2="shape" result="effect1_innerShadow"/>
</filter>
<filter id="filter1_f" x="73.1625" y="1.5" width="69.9319" height="112" filterUnits="userSpaceOnUse" color-interpolation-filters="sRGB">
<feFlood flood-opacity="0" result="BackgroundImageFix"/>
<feBlend mode="normal" in="SourceGraphic" in2="BackgroundImageFix" result="shape"/>
<feGaussianBlur stdDeviation="7.5" result="effect1_foregroundBlur"/>
</filter>
<filter id="filter2_f" x="13" y="27" width="40" height="58" filterUnits="userSpaceOnUse" color-interpolation-filters="sRGB">
<feFlood flood-opacity="0" result="BackgroundImageFix"/>
<feBlend mode="normal" in="SourceGraphic" in2="BackgroundImageFix" result="shape"/>
<feGaussianBlur stdDeviation="2" result="effect1_foregroundBlur"/>
</filter>
<linearGradient id="paint0_linear" x1="91" y1="55.9988" x2="91" y2="100.5" gradientUnits="userSpaceOnUse">
<stop stop-color="#7D5F11"/>
<stop offset="1" stop-color="#CD9914"/>
</linearGradient>
<linearGradient id="paint1_linear" x1="90" y1="130" x2="90" y2="180" gradientUnits="userSpaceOnUse">
<stop offset="0.553191" stop-color="#DFA612"/>
<stop offset="1" stop-color="#70540E"/>
</linearGradient>
</defs>
</svg>
