<svg width="41" height="23" viewBox="0 0 41 23" fill="none" xmlns="http://www.w3.org/2000/svg">
<path d="M13.2982 1.47L12.3082 4.05C11.7482 3.97 11.1582 3.93 10.5382 3.93C9.1382 3.93 7.9182 4.18 6.8782 4.68C5.8382 5.16 5.0482 5.8 4.5082 6.6C3.4882 8.18 2.9782 9.91 2.9782 11.79C2.9782 14.25 3.3582 16.13 4.1182 17.43C4.8782 18.71 5.7882 19.35 6.8482 19.35C8.2082 19.35 9.3482 18.81 10.2682 17.73C11.1882 16.65 11.9682 14.99 12.6082 12.75C12.6482 12.59 12.7182 12.51 12.8182 12.51C13.0982 12.51 13.4082 12.65 13.7482 12.93C13.3482 15.67 12.4282 17.86 10.9882 19.5C9.5682 21.14 7.9682 21.96 6.1882 21.96C4.4282 21.96 3.0082 21.18 1.9282 19.62C0.848203 18.06 0.308203 16 0.308203 13.44C0.308203 11.24 0.878203 9.18 2.0182 7.26C2.6382 6.2 3.4082 5.24 4.3282 4.38C5.2482 3.52 6.4382 2.76 7.8982 2.1C9.3582 1.44 10.9882 0.969999 12.7882 0.689999L13.2982 1.47ZM17.0566 21.84C16.4766 21.84 16.0266 21.65 15.7066 21.27C15.3866 20.89 15.2266 20.41 15.2266 19.83C15.2266 19.23 15.4966 18.71 16.0366 18.27C16.5766 17.81 17.3366 17.51 18.3166 17.37C19.0166 17.91 19.3666 18.59 19.3666 19.41C19.3666 20.21 19.1266 20.81 18.6466 21.21C18.1666 21.63 17.6366 21.84 17.0566 21.84ZM22.5741 14.7C22.2341 14.38 22.0641 13.98 22.0641 13.5C22.0641 13.34 22.0941 13.26 22.1541 13.26C22.5741 13.34 23.1941 13.38 24.0141 13.38H24.5841C24.5041 7.8 23.7041 4.12 22.1841 2.34L23.5941 0.33C25.0941 1.35 27.2341 2.47 30.0141 3.69C30.8741 4.07 31.7141 4.5 32.5341 4.98C34.1541 5.92 34.9641 7.14 34.9641 8.64C34.9641 10.14 34.2941 11.46 32.9541 12.6C31.6341 13.74 29.4441 14.43 26.3841 14.67C26.2641 16.03 26.0041 18.33 25.6041 21.57C25.3041 21.87 24.9841 22.02 24.6441 22.02C24.3241 22.02 24.1641 21.99 24.1641 21.93C24.4241 19.19 24.5641 16.79 24.5841 14.73H24.4341C23.5941 14.73 22.9741 14.72 22.5741 14.7ZM26.0841 3.69C26.4241 5.59 26.5941 7.41 26.5941 9.15C26.5941 10.89 26.5541 12.25 26.4741 13.23C28.2741 12.95 29.6341 12.42 30.5541 11.64C31.4741 10.84 31.9341 9.93 31.9341 8.91C31.9341 7.99 31.6541 7.25 31.0941 6.69C30.7941 6.37 30.5141 6.1 30.2541 5.88C30.0141 5.66 29.6041 5.4 29.0241 5.1C28.1241 4.64 27.1441 4.17 26.0841 3.69ZM37.8281 21.84C37.2481 21.84 36.7981 21.65 36.4781 21.27C36.1581 20.89 35.9981 20.41 35.9981 19.83C35.9981 19.23 36.2681 18.71 36.8081 18.27C37.3481 17.81 38.1081 17.51 39.0881 17.37C39.7881 17.91 40.1381 18.59 40.1381 19.41C40.1381 20.21 39.8981 20.81 39.4181 21.21C38.9381 21.63 38.4081 21.84 37.8281 21.84Z" fill="url(#paint0_linear)"/>
<defs>
<linearGradient id="paint0_linear" x1="40.4308" y1="-24.8816" x2="-10.933" y2="-22.2794" gradientUnits="userSpaceOnUse">
<stop stop-color="#5B5B5B"/>
<stop offset="0.369792" stop-color="#558F97"/>
<stop offset="1" stop-color="#2F748A"/>
</linearGradient>
</defs>
</svg>
